<svg width="38" height="38" viewBox="0 0 38 38" fill="none" xmlns="http://www.w3.org/2000/svg">
<circle cx="19" cy="19" r="19" fill="#D9D9D9"/>
<path fill-rule="evenodd" clip-rule="evenodd" d="M7.66406 18.9997C7.66406 18.6315 7.96254 18.333 8.33073 18.333H29.6641C30.0323 18.333 30.3307 18.6315 30.3307 18.9997C30.3307 19.3679 30.0323 19.6663 29.6641 19.6663H8.33073C7.96254 19.6663 7.66406 19.3679 7.66406 18.9997Z" fill="#745F5F"/>
<path fill-rule="evenodd" clip-rule="evenodd" d="M21.1953 10.5283C21.4556 10.2679 21.8777 10.2679 22.1381 10.5283L30.1381 18.5283C30.3984 18.7886 30.3984 19.2107 30.1381 19.4711L22.1381 27.4711C21.8777 27.7314 21.4556 27.7314 21.1953 27.4711C20.9349 27.2107 20.9349 26.7886 21.1953 26.5283L28.7239 18.9997L21.1953 11.4711C20.9349 11.2107 20.9349 10.7886 21.1953 10.5283Z" fill="#745F5F"/>
</svg>
