<svg width="32" height="33" viewBox="0 0 32 33" fill="none" xmlns="http://www.w3.org/2000/svg">
<path fill-rule="evenodd" clip-rule="evenodd" d="M3.33594 16.5C3.33594 16.1319 3.63441 15.8334 4.0026 15.8334H28.0026C28.3708 15.8334 28.6693 16.1319 28.6693 16.5C28.6693 16.8682 28.3708 17.1667 28.0026 17.1667H4.0026C3.63441 17.1667 3.33594 16.8682 3.33594 16.5Z" fill="black"/>
<path fill-rule="evenodd" clip-rule="evenodd" d="M3.33594 8.50004C3.33594 8.13185 3.63441 7.83337 4.0026 7.83337H28.0026C28.3708 7.83337 28.6693 8.13185 28.6693 8.50004C28.6693 8.86823 28.3708 9.16671 28.0026 9.16671H4.0026C3.63441 9.16671 3.33594 8.86823 3.33594 8.50004Z" fill="black"/>
<path fill-rule="evenodd" clip-rule="evenodd" d="M3.33594 24.5C3.33594 24.1319 3.63441 23.8334 4.0026 23.8334H28.0026C28.3708 23.8334 28.6693 24.1319 28.6693 24.5C28.6693 24.8682 28.3708 25.1667 28.0026 25.1667H4.0026C3.63441 25.1667 3.33594 24.8682 3.33594 24.5Z" fill="black"/>
</svg>
