<svg width="32" height="32" viewBox="0 0 32 32" fill="none" xmlns="http://www.w3.org/2000/svg">
<path fill-rule="evenodd" clip-rule="evenodd" d="M24.474 7.52864C24.7344 7.78899 24.7344 8.2111 24.474 8.47145L8.47401 24.4714C8.21366 24.7318 7.79155 24.7318 7.5312 24.4714C7.27085 24.2111 7.27085 23.789 7.5312 23.5286L23.5312 7.52864C23.7915 7.26829 24.2137 7.26829 24.474 7.52864Z" fill="black"/>
<path fill-rule="evenodd" clip-rule="evenodd" d="M7.5312 7.52864C7.79155 7.26829 8.21366 7.26829 8.47401 7.52864L24.474 23.5286C24.7344 23.789 24.7344 24.2111 24.474 24.4714C24.2137 24.7318 23.7915 24.7318 23.5312 24.4714L7.5312 8.47145C7.27085 8.2111 7.27085 7.78899 7.5312 7.52864Z" fill="black"/>
</svg>
